<svg xmlns="http://www.w3.org/2000/svg" xmlns:xlink="http://www.w3.org/1999/xlink" width="550" zoomAndPan="magnify" viewBox="0 0 412.5 112.499997" height="150" preserveAspectRatio="xMidYMid meet" version="1.0"><defs><g/><clipPath id="29fd1738ee"><path d="M 11.863281 12.292969 L 99.28125 12.292969 L 99.28125 99.707031 L 11.863281 99.707031 Z M 11.863281 12.292969 " clip-rule="nonzero"/></clipPath><clipPath id="575a34117a"><path d="M 17.355469 12.292969 L 93.785156 12.292969 C 96.820312 12.292969 99.28125 14.753906 99.28125 17.785156 L 99.28125 94.214844 C 99.28125 97.25 96.820312 99.707031 93.785156 99.707031 L 17.355469 99.707031 C 14.324219 99.707031 11.863281 97.25 11.863281 94.214844 L 11.863281 17.785156 C 11.863281 14.753906 14.324219 12.292969 17.355469 12.292969 Z M 17.355469 12.292969 " clip-rule="nonzero"/></clipPath><clipPath id="a5b65dff8b"><path d="M 25 25 L 86 25 L 86 86.964844 L 25 86.964844 Z M 25 25 " clip-rule="nonzero"/></clipPath></defs><g clip-path="url(#29fd1738ee)"><g clip-path="url(#575a34117a)"><path fill="#004aad" d="M 11.863281 12.292969 L 99.28125 12.292969 L 99.28125 99.707031 L 11.863281 99.707031 Z M 11.863281 12.292969 " fill-opacity="1" fill-rule="nonzero"/></g></g><g clip-path="url(#a5b65dff8b)"><path fill="#ffffff" d="M 47.417969 43.492188 C 49.902344 45.300781 52.316406 44.292969 52.785156 41.257812 L 54.8125 28.089844 C 55.28125 25.050781 56.042969 25.050781 56.511719 28.089844 L 58.535156 41.257812 C 59.003906 44.292969 61.421875 45.300781 63.90625 43.492188 L 75.355469 35.164062 C 77.839844 33.359375 78.394531 33.914062 76.585938 36.398438 L 68.257812 47.847656 C 66.449219 50.335938 67.457031 52.746094 70.496094 53.214844 L 83.660156 55.242188 C 86.699219 55.710938 86.699219 56.472656 83.660156 56.941406 L 70.496094 58.96875 C 67.457031 59.433594 66.449219 61.851562 68.257812 64.335938 L 76.585938 75.785156 C 78.394531 78.269531 77.839844 78.824219 75.355469 77.015625 L 63.90625 68.6875 C 61.421875 66.878906 59.003906 67.886719 58.535156 70.925781 L 56.511719 84.09375 C 56.042969 87.128906 55.28125 87.128906 54.8125 84.09375 L 52.785156 70.925781 C 52.316406 67.886719 49.902344 66.878906 47.417969 68.6875 L 35.96875 77.015625 C 33.484375 78.824219 33.023438 78.34375 34.953125 75.949219 L 44.421875 64.171875 C 46.347656 61.777344 45.433594 59.472656 42.390625 59.050781 L 27.382812 56.980469 C 24.339844 56.558594 24.332031 55.824219 27.367188 55.347656 L 40.832031 53.234375 C 43.867188 52.757812 44.871094 50.332031 43.0625 47.847656 L 34.734375 36.398438 C 32.925781 33.914062 33.484375 33.359375 35.96875 35.167969 Z M 47.417969 43.492188 " fill-opacity="1" fill-rule="nonzero"/></g><g fill="#000000" fill-opacity="1"><g transform="translate(114.126194, 80.789058)"><g><path d="M 27.84375 -35.765625 L 27.84375 -26.046875 L 19.859375 -26.046875 L 19.859375 0 L 10.140625 0 L 10.140625 -26.046875 L 2.078125 -26.046875 L 2.078125 -35.765625 L 10.140625 -35.765625 L 10.140625 -48.265625 L 19.859375 -48.265625 L 19.859375 -35.765625 Z M 27.84375 -35.765625 "/></g></g></g><g fill="#000000" fill-opacity="1"><g transform="translate(144.058545, 80.789058)"><g><path d="M 36.53125 -16.328125 C 36.582031 -15.347656 36.582031 -14.765625 36.53125 -14.578125 L 10.421875 -14.65625 C 10.785156 -13.59375 11.457031 -12.570312 12.4375 -11.59375 C 14.238281 -9.882812 16.320312 -9.03125 18.6875 -9.03125 C 21.1875 -9.125 23.269531 -10.003906 24.9375 -11.671875 L 25.21875 -11.953125 L 34.234375 -9.09375 C 32.242188 -5.988281 30.160156 -3.769531 27.984375 -2.4375 C 25.535156 -0.851562 22.457031 -0.0390625 18.75 0 C 13.84375 0.0390625 9.628906 -1.671875 6.109375 -5.140625 C 2.585938 -8.609375 0.804688 -12.820312 0.765625 -17.78125 C 0.710938 -22.6875 2.425781 -26.898438 5.90625 -30.421875 C 9.375 -33.941406 13.585938 -35.722656 18.546875 -35.765625 C 23.453125 -35.816406 27.664062 -34.101562 31.1875 -30.625 C 34.707031 -27.15625 36.488281 -22.941406 36.53125 -17.984375 Z M 18.609375 -26.671875 C 16.160156 -26.671875 14.078125 -25.8125 12.359375 -24.09375 C 11.484375 -23.125 10.859375 -22.15625 10.484375 -21.1875 L 26.8125 -21.1875 C 26.4375 -22.15625 25.785156 -23.148438 24.859375 -24.171875 C 23.097656 -25.835938 21.015625 -26.671875 18.609375 -26.671875 Z M 18.609375 -26.671875 "/></g></g></g><g fill="#000000" fill-opacity="1"><g transform="translate(181.35245, 80.789058)"><g><path d="M 30.703125 -4.3125 C 27.316406 -1.4375 23.378906 0 18.890625 0 C 13.929688 -0.0390625 9.71875 -1.820312 6.25 -5.34375 C 2.78125 -8.863281 1.066406 -13.078125 1.109375 -17.984375 C 1.160156 -22.941406 2.941406 -27.15625 6.453125 -30.625 C 9.972656 -34.101562 14.1875 -35.816406 19.09375 -35.765625 C 23.539062 -35.722656 27.429688 -34.242188 30.765625 -31.328125 L 24.3125 -24.9375 C 22.738281 -26.09375 20.976562 -26.671875 19.03125 -26.671875 C 16.625 -26.671875 14.539062 -25.835938 12.78125 -24.171875 C 11.0625 -22.453125 10.203125 -20.367188 10.203125 -17.921875 C 10.117188 -15.515625 10.953125 -13.429688 12.703125 -11.671875 C 14.367188 -10.003906 16.453125 -9.125 18.953125 -9.03125 C 20.898438 -9.03125 22.660156 -9.609375 24.234375 -10.765625 Z M 30.703125 -4.3125 "/></g></g></g><g fill="#000000" fill-opacity="1"><g transform="translate(213.159907, 80.789058)"><g><path d="M 38.546875 0 L 29.515625 0 L 29.515625 -17.640625 L 29.453125 -17.640625 L 29.453125 -17.84375 C 29.453125 -20.257812 28.59375 -22.320312 26.875 -24.03125 C 25.164062 -25.738281 23.082031 -26.59375 20.625 -26.59375 C 18.21875 -26.59375 16.132812 -25.71875 14.375 -23.96875 C 12.613281 -22.207031 11.78125 -20.117188 11.875 -17.703125 L 11.875 -17.640625 L 11.8125 -17.640625 L 11.8125 0 L 2.078125 0 L 2.078125 -45.140625 L 11.8125 -45.140625 L 11.8125 -31.25 C 13.988281 -33.84375 16.90625 -35.300781 20.5625 -35.625 C 25.65625 -36.039062 29.867188 -34.722656 33.203125 -31.671875 C 36.765625 -28.378906 38.546875 -23.769531 38.546875 -17.84375 Z M 38.546875 0 "/></g></g></g><g fill="#000000" fill-opacity="1"><g transform="translate(253.787341, 80.789058)"><g><path d="M 28.75 -35.84375 L 37.859375 -35.84375 L 37.859375 -0.0625 C 37.859375 4.84375 36.117188 9.03125 32.640625 12.5 C 29.210938 15.96875 25.046875 17.726562 20.140625 17.78125 C 15.554688 17.820312 11.550781 16.316406 8.125 13.265625 C 4.75 10.304688 2.804688 6.578125 2.296875 2.078125 L 11.453125 2.078125 C 11.785156 3.566406 12.578125 4.9375 13.828125 6.1875 C 15.535156 7.894531 17.617188 8.75 20.078125 8.75 C 22.523438 8.75 24.582031 7.867188 26.25 6.109375 C 27.96875 4.398438 28.828125 2.34375 28.828125 -0.0625 L 28.75 -3.609375 C 26.394531 -1.242188 23.523438 -0.0625 20.140625 -0.0625 C 15.179688 -0.0195312 10.945312 -1.734375 7.4375 -5.203125 C 3.914062 -8.679688 2.15625 -12.894531 2.15625 -17.84375 C 2.101562 -22.800781 3.816406 -27.015625 7.296875 -30.484375 C 10.765625 -34.003906 14.976562 -35.789062 19.9375 -35.84375 C 23.875 -35.84375 26.8125 -34.613281 28.75 -32.15625 Z M 28.75 -18.953125 C 28.5625 -20.992188 27.707031 -22.753906 26.1875 -24.234375 C 24.425781 -25.898438 22.34375 -26.734375 19.9375 -26.734375 C 17.53125 -26.734375 15.46875 -25.878906 13.75 -24.171875 C 12.039062 -22.367188 11.1875 -20.285156 11.1875 -17.921875 C 11.1875 -15.515625 12.066406 -13.429688 13.828125 -11.671875 C 15.535156 -9.953125 17.617188 -9.09375 20.078125 -9.09375 C 22.578125 -9.1875 24.632812 -10.066406 26.25 -11.734375 C 27.6875 -13.171875 28.519531 -14.882812 28.75 -16.875 Z M 28.75 -18.953125 "/></g></g></g><g fill="#000000" fill-opacity="1"><g transform="translate(293.720296, 80.789058)"><g><path d="M 11.8125 -30.421875 C 12.59375 -32.640625 13.910156 -34.191406 15.765625 -35.078125 C 17.566406 -35.953125 20.273438 -36.390625 23.890625 -36.390625 L 23.890625 -26.46875 C 20.367188 -26.46875 17.429688 -25.257812 15.078125 -22.84375 C 12.898438 -20.71875 11.8125 -18.378906 11.8125 -15.828125 L 11.8125 0 L 2.078125 0 L 2.078125 -35.765625 L 11.8125 -35.765625 Z M 11.8125 -30.421875 "/></g></g></g><g fill="#000000" fill-opacity="1"><g transform="translate(318.652344, 80.789058)"><g><path d="M 27.78125 -35.90625 L 37.5 -35.90625 L 37.5 0 L 27.78125 0 L 27.78125 -4.03125 C 25.789062 -1.4375 22.78125 -0.140625 18.75 -0.140625 C 13.84375 -0.0859375 9.628906 -1.800781 6.109375 -5.28125 C 2.585938 -8.75 0.804688 -12.960938 0.765625 -17.921875 C 0.710938 -22.828125 2.425781 -27.039062 5.90625 -30.5625 C 9.375 -34.082031 13.585938 -35.863281 18.546875 -35.90625 C 22.617188 -35.90625 25.695312 -34.585938 27.78125 -31.953125 Z M 24.859375 -11.8125 C 26.578125 -13.519531 27.4375 -15.601562 27.4375 -18.0625 C 27.4375 -20.5625 26.554688 -22.644531 24.796875 -24.3125 C 23.035156 -26.070312 20.972656 -26.90625 18.609375 -26.8125 C 16.160156 -26.8125 14.078125 -25.953125 12.359375 -24.234375 C 10.648438 -22.523438 9.796875 -20.441406 9.796875 -17.984375 C 9.796875 -15.578125 10.675781 -13.492188 12.4375 -11.734375 C 14.144531 -10.023438 16.226562 -9.171875 18.6875 -9.171875 C 21.1875 -9.265625 23.242188 -10.144531 24.859375 -11.8125 Z M 24.859375 -11.8125 "/></g></g></g><g fill="#000000" fill-opacity="1"><g transform="translate(358.238058, 80.789058)"><g><path d="M 30.078125 0 L 30.078125 -4.09375 C 26.742188 -1.363281 22.96875 0 18.75 0 C 13.84375 0.0390625 9.628906 -1.671875 6.109375 -5.140625 C 2.585938 -8.609375 0.804688 -12.820312 0.765625 -17.78125 C 0.710938 -22.6875 2.425781 -26.898438 5.90625 -30.421875 C 9.375 -33.941406 13.585938 -35.722656 18.546875 -35.765625 C 22.847656 -35.765625 26.664062 -34.398438 30 -31.671875 L 30 -48.484375 L 39.734375 -48.484375 L 39.796875 0 Z M 24.9375 -11.671875 C 26.644531 -13.378906 27.5 -15.460938 27.5 -17.921875 C 27.40625 -20.421875 26.523438 -22.503906 24.859375 -24.171875 C 23.097656 -25.835938 21.015625 -26.671875 18.609375 -26.671875 C 16.160156 -26.671875 14.078125 -25.8125 12.359375 -24.09375 C 10.648438 -22.195312 9.816406 -20.113281 9.859375 -17.84375 C 9.859375 -15.394531 10.71875 -13.3125 12.4375 -11.59375 C 14.144531 -9.882812 16.226562 -9.03125 18.6875 -9.03125 C 21.1875 -9.125 23.269531 -10.003906 24.9375 -11.671875 Z M 24.9375 -11.671875 "/></g></g></g></svg>